/* XPM */
static char * bottom_left_active_xpm[] = {
"29 16 171 2",
"  	c None",
". 	c #171717",
"+ 	c #101010",
"@ 	c #161616",
"# 	c #000000",
"$ 	c #050505",
"% 	c #020203",
"& 	c #000101",
"* 	c #000001",
"= 	c #010203",
"- 	c #020608",
"; 	c #09161A",
"> 	c #081518",
", 	c #060F11",
"' 	c #282828",
") 	c #292929",
"! 	c #252525",
"~ 	c #161617",
"{ 	c #090A0C",
"] 	c #040708",
"^ 	c #050C0E",
"/ 	c #0F272E",
"( 	c #3588A2",
"_ 	c #328098",
": 	c #235B6C",
"< 	c #2B2B2B",
"[ 	c #414141",
"} 	c #434343",
"| 	c #3C3C3C",
"1 	c #272728",
"2 	c #121415",
"3 	c #080C0D",
"4 	c #060E11",
"5 	c #112E36",
"6 	c #41A2C1",
"7 	c #3E9BB8",
"8 	c #2B6C81",
"9 	c #424242",
"0 	c #444444",
"a 	c #464646",
"b 	c #4D4B4B",
"c 	c #4E4D4D",
"d 	c #474646",
"e 	c #2D2E2E",
"f 	c #151819",
"g 	c #0A0E10",
"h 	c #081014",
"i 	c #14333E",
"j 	c #52B3D4",
"k 	c #49ADCE",
"l 	c #317A93",
"m 	c #4C4C4C",
"n 	c #4E4E4E",
"o 	c #515151",
"p 	c #3B3B3B",
"q 	c #242426",
"r 	c #0E1114",
"s 	c #060A0E",
"t 	c #061014",
"u 	c #15343F",
"v 	c #55B6D4",
"w 	c #4CB0CF",
"x 	c #347C93",
"y 	c #484848",
"z 	c #2F2F2E",
"A 	c #2D2D2D",
"B 	c #272727",
"C 	c #151516",
"D 	c #060609",
"E 	c #020609",
"F 	c #061116",
"G 	c #163742",
"H 	c #53B3D3",
"I 	c #4AAECF",
"J 	c #337D95",
"K 	c #303030",
"L 	c #333333",
"M 	c #363636",
"N 	c #1D1D1D",
"O 	c #1B1B1A",
"P 	c #151514",
"Q 	c #0A0808",
"R 	c #020001",
"S 	c #000406",
"T 	c #071419",
"U 	c #1D3F4A",
"V 	c #72C2DC",
"W 	c #67BCD7",
"X 	c #47879C",
"Y 	c #202020",
"Z 	c #232323",
"` 	c #151515",
" .	c #111111",
"..	c #0E0E0D",
"+.	c #060403",
"@.	c #000609",
"#.	c #051A21",
"$.	c #274955",
"%.	c #A5DBED",
"&.	c #99D3E6",
"*.	c #689BAB",
"=.	c #181818",
"-.	c #1C1C1C",
";.	c #141414",
">.	c #0B0B0B",
",.	c #040201",
"'.	c #00090D",
").	c #05212A",
"!.	c #355763",
"~.	c #E2F9FE",
"{.	c #D2F1FA",
"].	c #8FB1BB",
"^.	c #1A1A1A",
"/.	c #1E1E1E",
"(.	c #00090C",
"_.	c #041F27",
":.	c #2E515D",
"<.	c #C8EBF8",
"[.	c #B8E3F2",
"}.	c #7DA7B5",
"|.	c #040202",
"1.	c #000709",
"2.	c #06181F",
"3.	c #244651",
"4.	c #8DD0E5",
"5.	c #82C9DF",
"6.	c #5992A5",
"7.	c #131313",
"8.	c #0F0F0F",
"9.	c #040303",
"0.	c #010405",
"a.	c #061215",
"b.	c #173944",
"c.	c #54B3D1",
"d.	c #4CADCB",
"e.	c #357C93",
"f.	c #191919",
"g.	c #050403",
"h.	c #010000",
"i.	c #010303",
"j.	c #060E10",
"k.	c #122E36",
"l.	c #3B95B3",
"m.	c #378EAB",
"n.	c #28667A",
"o.	c #0D0D0D",
"p.	c #090909",
"q.	c #010202",
"r.	c #040A0C",
"s.	c #0E232A",
"t.	c #2F768E",
"u.	c #2D7187",
"v.	c #205061",
"w.	c #080808",
"x.	c #060606",
"y.	c #050404",
"z.	c #020101",
"A.	c #000202",
"B.	c #03090A",
"C.	c #0B1D22",
"D.	c #255F72",
"E.	c #235A6B",
"F.	c #19414D",
"G.	c #0A0A0A",
"H.	c #0C0C0C",
"I.	c #0E0E0E",
"J.	c #121212",
"K.	c #020405",
"L.	c #060F12",
"M.	c #040A0B",
"N.	c #010101",
". + @ # $ $ $ % & * = - ; > , - = * & % $ $ $ $ $ $ $ $ $ ",
". + @ # ' ) ! ~ { ] ^ / ( _ : / ^ ] { ~ ! ) ' ' ) < < < < ",
". + @ # [ } | 1 2 3 4 5 6 7 8 5 4 3 2 1 | } [ 9 0 a a a a ",
". + @ # b c d e f g h i j k l i h g f e d c b m n o o o o ",
". + @ # } } p q r s t u v w x u t s r q p } } 0 a y y y y ",
". + @ # z A B C D E F G H I J G F E D C B A z K L M M M M ",
". + @ # N O P Q R S T U V W X U T S R Q P O N Y Z B B B B ",
". + @ # `  ...+.# @.#.$.%.&.*.$.#.@.# +... .` =.-.Y Y Y Y ",
". + @ # ;.+ >.,.# '.).!.~.{.].!.).'.# ,.>.+ ;.. ^././././.",
". + @ # ;.+ >.,.# (._.:.<.[.}.:._.(.# ,.>.+ ;.. ^././././.",
". + @ # ;.+ >.|.# 1.2.3.4.5.6.3.2.1.# |.>.+ ;.. ^././././.",
". + @ # 7.8.>.9.# 0.a.b.c.d.e.b.a.0.# 9.>.8.7.@ f././././.",
". + @ # 7.8.>.g.h.i.j.k.l.m.n.k.j.i.h.g.>.8.7.@ ^././././.",
". + @ # + o.p.9.h.q.r.s.t.u.v.s.r.q.h.9.p.o.+ 7.. ^.^.^.^.",
". + @ # w.x.y.z.# A.B.C.D.E.F.C.B.A.# z.y.x.w.p.G.H.H.H.H.",
". + @ # I.J.@ =.h.h.& K.L.j.M.K.& h.h.h.N.# N.N.N.N.N.N.N."};
