/* XPM */
static char * bottom_right_inactive_xpm[] = {
"29 16 169 2",
"  	c None",
". 	c #050505",
"+ 	c #020203",
"@ 	c #000101",
"# 	c #000001",
"$ 	c #010203",
"% 	c #020608",
"& 	c #060F11",
"* 	c #081518",
"= 	c #09161A",
"- 	c #000000",
"; 	c #161616",
"> 	c #111111",
", 	c #181818",
"' 	c #2B2B2B",
") 	c #292929",
"! 	c #282828",
"~ 	c #252525",
"{ 	c #161617",
"] 	c #090A0C",
"^ 	c #040708",
"/ 	c #050C0E",
"( 	c #0F272E",
"_ 	c #235B6C",
": 	c #328098",
"< 	c #3588A2",
"[ 	c #464646",
"} 	c #444444",
"| 	c #424242",
"1 	c #414141",
"2 	c #434343",
"3 	c #3C3C3C",
"4 	c #272728",
"5 	c #121415",
"6 	c #080C0D",
"7 	c #060E11",
"8 	c #112E36",
"9 	c #2B6C81",
"0 	c #3E9BB8",
"a 	c #41A2C1",
"b 	c #515151",
"c 	c #4E4E4E",
"d 	c #4C4C4C",
"e 	c #4D4B4B",
"f 	c #4E4D4D",
"g 	c #474646",
"h 	c #2D2E2E",
"i 	c #151819",
"j 	c #0A0E10",
"k 	c #081014",
"l 	c #14333E",
"m 	c #317A93",
"n 	c #49ADCE",
"o 	c #52B3D4",
"p 	c #484848",
"q 	c #3B3B3B",
"r 	c #242426",
"s 	c #0E1114",
"t 	c #060A0E",
"u 	c #061014",
"v 	c #15343F",
"w 	c #347C93",
"x 	c #4CB0CF",
"y 	c #55B6D4",
"z 	c #363636",
"A 	c #333333",
"B 	c #303030",
"C 	c #2F2F2E",
"D 	c #2D2D2D",
"E 	c #272727",
"F 	c #151516",
"G 	c #060609",
"H 	c #020609",
"I 	c #061116",
"J 	c #163742",
"K 	c #337D95",
"L 	c #4AAECF",
"M 	c #53B3D3",
"N 	c #232323",
"O 	c #202020",
"P 	c #1D1D1D",
"Q 	c #1B1B1A",
"R 	c #151514",
"S 	c #0A0808",
"T 	c #020001",
"U 	c #000406",
"V 	c #071419",
"W 	c #1D3F4A",
"X 	c #47879C",
"Y 	c #67BCD7",
"Z 	c #72C2DC",
"` 	c #1C1C1C",
" .	c #151515",
"..	c #0E0E0D",
"+.	c #060403",
"@.	c #000609",
"#.	c #051A21",
"$.	c #274955",
"%.	c #689BAB",
"&.	c #99D3E6",
"*.	c #A5DBED",
"=.	c #1E1E1E",
"-.	c #1A1A1A",
";.	c #171717",
">.	c #141414",
",.	c #101010",
"'.	c #0B0B0B",
").	c #040201",
"!.	c #00090D",
"~.	c #05212A",
"{.	c #355763",
"].	c #8FB1BB",
"^.	c #D2F1FA",
"/.	c #E2F9FE",
"(.	c #00090C",
"_.	c #041F27",
":.	c #2E515D",
"<.	c #7DA7B5",
"[.	c #B8E3F2",
"}.	c #C8EBF8",
"|.	c #040202",
"1.	c #000709",
"2.	c #06181F",
"3.	c #244651",
"4.	c #5992A5",
"5.	c #82C9DF",
"6.	c #8DD0E5",
"7.	c #191919",
"8.	c #131313",
"9.	c #0F0F0F",
"0.	c #040303",
"a.	c #010405",
"b.	c #061215",
"c.	c #173944",
"d.	c #357C93",
"e.	c #4CADCB",
"f.	c #54B3D1",
"g.	c #050403",
"h.	c #010000",
"i.	c #010303",
"j.	c #060E10",
"k.	c #122E36",
"l.	c #28667A",
"m.	c #378EAB",
"n.	c #3B95B3",
"o.	c #0D0D0D",
"p.	c #090909",
"q.	c #010202",
"r.	c #040A0C",
"s.	c #0E232A",
"t.	c #205061",
"u.	c #2D7187",
"v.	c #2F768E",
"w.	c #0C0C0C",
"x.	c #0A0A0A",
"y.	c #080808",
"z.	c #060606",
"A.	c #050404",
"B.	c #020101",
"C.	c #000202",
"D.	c #03090A",
"E.	c #0B1D22",
"F.	c #19414D",
"G.	c #235A6B",
"H.	c #255F72",
"I.	c #010101",
"J.	c #020405",
"K.	c #040A0B",
"L.	c #060F12",
". . . . . . . . . + @ # $ % & * = % $ # @ + . . . - ; > , ",
"' ' ' ' ) ! ! ) ~ { ] ^ / ( _ : < ( / ^ ] { ~ ) ! - ; > , ",
"[ [ [ [ } | 1 2 3 4 5 6 7 8 9 0 a 8 7 6 5 4 3 2 1 - ; > , ",
"b b b b c d e f g h i j k l m n o l k j i h g f e - ; > , ",
"p p p p [ } 2 2 q r s t u v w x y v u t s r q 2 2 - ; > , ",
"z z z z A B C D E F G H I J K L M J I H G F E D C - ; > , ",
"E E E E N O P Q R S T U V W X Y Z W V U T S R Q P - ; > , ",
"O O O O ` ,  .> ..+.- @.#.$.%.&.*.$.#.@.- +...>  .- ; > , ",
"=.=.=.=.-.;.>.,.'.).- !.~.{.].^./.{.~.!.- ).'.,.>.- ; > , ",
"=.=.=.=.-.;.>.,.'.).- (._.:.<.[.}.:._.(.- ).'.,.>.- ; > , ",
"=.=.=.=.-.;.>.,.'.|.- 1.2.3.4.5.6.3.2.1.- |.'.,.>.- ; > , ",
"=.=.=.=.7.; 8.9.'.0.- a.b.c.d.e.f.c.b.a.- 0.'.9.8.- ; > , ",
"=.=.=.=.-.; 8.9.'.g.h.i.j.k.l.m.n.k.j.i.h.g.'.9.8.- ; > , ",
"-.-.-.-.;.8.,.o.p.0.h.q.r.s.t.u.v.s.r.q.h.0.p.o.,.- ; > , ",
"w.w.w.w.x.p.y.z.A.B.- C.D.E.F.G.H.E.D.C.- B.A.z.y.- ; > , ",
"I.I.I.I.I.I.I.- I.h.h.h.@ J.K.j.L.J.@ h.h.J.J.@ h.- ; > , "};
