/* XPM */
static char * close_inactive_xpm[] = {
"29 33 152 2",
"  	c None",
". 	c #000000",
"+ 	c #0C0C0C",
"@ 	c #202020",
"# 	c #333333",
"$ 	c #414141",
"% 	c #4C4C4C",
"& 	c #525252",
"* 	c #535353",
"= 	c #505050",
"- 	c #4E4E4E",
"; 	c #4F4F4F",
"> 	c #545454",
", 	c #555555",
"' 	c #484848",
") 	c #4B4B4B",
"! 	c #5E5E5E",
"~ 	c #696969",
"{ 	c #646464",
"] 	c #494949",
"^ 	c #434343",
"/ 	c #4D4D4D",
"( 	c #444444",
"_ 	c #626262",
": 	c #858585",
"< 	c #929292",
"[ 	c #838383",
"} 	c #393939",
"| 	c #454545",
"1 	c #404040",
"2 	c #3F3F3F",
"3 	c #3E3E3E",
"4 	c #3C3C3C",
"5 	c #6A6A6A",
"6 	c #BDBDBD",
"7 	c #C4C4C4",
"8 	c #B2B2B2",
"9 	c #A3A3A3",
"0 	c #8F8F8F",
"a 	c #7D7D7D",
"b 	c #707070",
"c 	c #3D3D3D",
"d 	c #363636",
"e 	c #313131",
"f 	c #252525",
"g 	c #2A2A2A",
"h 	c #1B1B1B",
"i 	c #343434",
"j 	c #262626",
"k 	c #6C6C6C",
"l 	c #D1D1D1",
"m 	c #D5D5D5",
"n 	c #C2C2C2",
"o 	c #A9A9A9",
"p 	c #959595",
"q 	c #383838",
"r 	c #323232",
"s 	c #2F2F2F",
"t 	c #303030",
"u 	c #242424",
"v 	c #212121",
"w 	c #222222",
"x 	c #191919",
"y 	c #2C2C2C",
"z 	c #CFCFCF",
"A 	c #DCDCDC",
"B 	c #ECECEC",
"C 	c #DBDBDB",
"D 	c #B3B3B3",
"E 	c #999999",
"F 	c #8A8A8A",
"G 	c #717171",
"H 	c #373737",
"I 	c #2B2B2B",
"J 	c #282828",
"K 	c #2E2E2E",
"L 	c #1C1C1C",
"M 	c #1E1E1E",
"N 	c #1D1D1D",
"O 	c #232323",
"P 	c #595959",
"Q 	c #D2D2D2",
"R 	c #E8E8E8",
"S 	c #D4D4D4",
"T 	c #B0B0B0",
"U 	c #8B8B8B",
"V 	c #767676",
"W 	c #272727",
"X 	c #181818",
"Y 	c #1F1F1F",
"Z 	c #ABABAB",
"` 	c #B8B8B8",
" .	c #C7C7C7",
"..	c #A5A5A5",
"+.	c #969696",
"@.	c #868686",
"#.	c #727272",
"$.	c #606060",
"%.	c #5D5D5D",
"&.	c #161616",
"*.	c #757575",
"=.	c #989898",
"-.	c #9C9C9C",
";.	c #9F9F9F",
">.	c #9E9E9E",
",.	c #8C8C8C",
"'.	c #7B7B7B",
").	c #3B3B3B",
"!.	c #151515",
"~.	c #5A5A5A",
"{.	c #828282",
"].	c #949494",
"^.	c #909090",
"/.	c #888888",
"(.	c #7C7C7C",
"_.	c #6F6F6F",
":.	c #6E6E6E",
"<.	c #565656",
"[.	c #171717",
"}.	c #131313",
"|.	c #777777",
"1.	c #7F7F7F",
"2.	c #6B6B6B",
"3.	c #787878",
"4.	c #676767",
"5.	c #737373",
"6.	c #818181",
"7.	c #656565",
"8.	c #5F5F5F",
"9.	c #121212",
"0.	c #2D2D2D",
"a.	c #636363",
"b.	c #7A7A7A",
"c.	c #797979",
"d.	c #101010",
"e.	c #111111",
"f.	c #292929",
"g.	c #686868",
"h.	c #848484",
"i.	c #353535",
"j.	c #515151",
"k.	c #575757",
"l.	c #5B5B5B",
"m.	c #0D0D0D",
"n.	c #0B0B0B",
"o.	c #0A0A0A",
"p.	c #0E0E0E",
"q.	c #3A3A3A",
"r.	c #1A1A1A",
"s.	c #141414",
"t.	c #090909",
"u.	c #030303",
". . . . . . . . . . . . . . . . . . . . . . . . . . . . . ",
"+ + + + + + + + + + + + + + + + + + + + + + + + + + + + + ",
"@ @ @ @ @ @ @ @ @ @ @ @ @ @ @ @ @ @ @ @ @ @ @ @ @ @ @ @ @ ",
"# # # # # # # # # # # # # # # # # # # # # # # # # # # # # ",
"$ $ $ $ $ $ $ $ $ $ $ $ $ $ $ $ $ $ $ $ $ $ $ $ $ $ $ $ $ ",
"% % % % % % % % % % % % % % % % % % % % % % % % % % % % % ",
"& & & & & & & & & & & & & & & & & & & & & & & & & & & & & ",
"* * * * * * * * * * * * = - ; & > , * * * * * * * * * * * ",
"; ; ; ; ; ; ; ; ; % ' ) ! ~ { , ] ^ / ; ; ; ; ; ; ; ; ; ; ",
"' ' ' ' ' ' ' ' ( / _ ~ : < [ { % } | ' ' ' ' ' ' ' ' ' ' ",
"1 1 2 2 1 3 1 2 4 5 6 7 8 9 0 a b > 2 c 2 1 1 3 1 2 2 1 1 ",
"d e f g # h i j k 6 l m n o p [ ~ % q r s t i h # g f e d ",
"s u v u w x y i : z A B C D E F G , | H I J K x w u v u s ",
"J L v u M N O P E n Q R S T E U V ! > 4 I W W N M u v L J ",
"u X @ j @ Y L V 9 Z `  .` ..+.@.#.$.%.$ e y v Y @ j @ X u ",
"w &.@ W w N X *.=.p -.;.>.=.,.'.~ ! _ ] ).# h M w W @ &.w ",
"@ &.Y W w N !.~.'.{.0 ].^./.(._._ %.:.<.^ i [.N w W Y &.@ ",
"@ &.M W f L }.i ! |.'.1.a |.k _ $.2.3.4.% s }.L f W M &.@ ",
"@ X N J I Y }.X ; V 2.b :.~ _ { 5.6.7.8.| M 9.Y I J N X @ ",
"@ L L f 0.O [.+ e ~.a.:.G 5.|.b.c.5.8.= K d.[.O 0.f L L @ ",
"@ @ h M g I @ e.e.f.; g.G b.h.{.:.<.* i [.d.@ I g M h @ @ ",
"@ v L h j i.g Y e.+ M | % j.* k.l.= w m.e.Y g i.j h L v @ ",
"@ @ v M N I r 0.O [.+ m.m.n.o.n.p.m.m.[.O 0.r I N M v @ @ ",
"@ @ v Y N w 0.i.r I O x 9.+ n.+ e.x w g r i.0.w N Y v @ @ ",
"@ @ @ v @ N O K d q d # s K 0.K s # d q d K O N @ v @ @ @ ",
"@ @ @ v w Y M Y g i.q 4 1 ^ ^ ^ 1 4 q i.g Y M Y w v @ @ @ ",
"@ @ @ Y @ u v X h O f.r H q.q.q.H r f.O h X v u @ Y @ @ @ ",
"N N N N N N Y u v r.x @ f W W W f @ x r.v u Y N N N N N N ",
"X X X X X X x x h Y O w v @ @ @ v w O Y h x x X X X X X X ",
"e.e.e.e.e.e.e.e.9.s.&.!.s.s.s.s.s.!.&.s.9.e.e.e.e.e.e.e.e.",
"o.o.o.o.o.o.o.o.o.t.t.t.t.t.t.t.t.t.t.t.o.o.o.o.o.o.o.o.o.",
"u.u.u.u.u.u.u.u.u.u.u.u.u.u.u.u.u.u.u.u.u.u.u.u.u.u.u.u.u.",
". . . . . . . . . . . . . . . . . . . . . . . . . . . . . "};
