/* XPM */
static char * close_active_xpm[] = {
"29 33 355 2",
"  	c None",
". 	c #000000",
"+ 	c #0C0C0C",
"@ 	c #202020",
"# 	c #333333",
"$ 	c #414141",
"% 	c #4C4C4C",
"& 	c #525252",
"* 	c #535353",
"= 	c #545353",
"- 	c #555251",
"; 	c #554F4D",
"> 	c #544D4B",
", 	c #554E4C",
"' 	c #56514F",
") 	c #565352",
"! 	c #565554",
"~ 	c #4F4F4F",
"{ 	c #4E4C4C",
"] 	c #494848",
"^ 	c #3C4F55",
"/ 	c #416571",
"( 	c #46717F",
"_ 	c #456B76",
": 	c #3F5A63",
"< 	c #3A4C52",
"[ 	c #3C4447",
"} 	c #4E4D4D",
"| 	c #504F4F",
"1 	c #484848",
"2 	c #464443",
"3 	c #4B4D4E",
"4 	c #51666C",
"5 	c #417382",
"6 	c #4294AF",
"7 	c #43A5C5",
"8 	c #3894B1",
"9 	c #29728A",
"0 	c #1F5668",
"a 	c #1E3F4A",
"b 	c #3A474B",
"c 	c #474849",
"d 	c #494847",
"e 	c #404040",
"f 	c #3F3F3F",
"g 	c #3E3E3F",
"h 	c #3E3C3B",
"i 	c #576F77",
"j 	c #87CADF",
"k 	c #99CEE0",
"l 	c #7DBFD4",
"m 	c #62B2CC",
"n 	c #489FBC",
"o 	c #368DAA",
"p 	c #327E96",
"q 	c #255F72",
"r 	c #184857",
"s 	c #314045",
"t 	c #413F3F",
"u 	c #363636",
"v 	c #303131",
"w 	c #242526",
"x 	c #292A2A",
"y 	c #323333",
"z 	c #191B1D",
"A 	c #343434",
"B 	c #282625",
"C 	c #50737E",
"D 	c #8EC8DB",
"E 	c #B1D9E6",
"F 	c #B8DCE8",
"G 	c #98CCDD",
"H 	c #6DB7CE",
"I 	c #4CA6C4",
"J 	c #3994B1",
"K 	c #2F768D",
"L 	c #215667",
"M 	c #193F4C",
"N 	c #163843",
"O 	c #203238",
"P 	c #2F3030",
"Q 	c #2F2F2F",
"R 	c #242425",
"S 	c #202122",
"T 	c #232425",
"U 	c #222224",
"V 	c #18191A",
"W 	c #2C2C2C",
"X 	c #223840",
"Y 	c #5D8E9E",
"Z 	c #A5D9EA",
"` 	c #C5E2EB",
" .	c #DFEFF4",
"..	c #C3E1EB",
"+.	c #7EBFD4",
"@.	c #51AAC7",
"#.	c #409BB8",
"$.	c #328099",
"%.	c #266074",
"&.	c #1F4E5E",
"*.	c #173E4C",
"=.	c #163039",
"-.	c #212A2E",
";.	c #2C2E2D",
">.	c #282828",
",.	c #1C1C1D",
"'.	c #1F2122",
").	c #222425",
"!.	c #1D1E20",
"~.	c #1C1D1E",
"{.	c #252323",
"].	c #316272",
"^.	c #63A6BC",
"/.	c #95CDDF",
"(.	c #B4D9E6",
"_.	c #D9ECF2",
":.	c #B7DBE7",
"<.	c #7ABDD3",
"[.	c #409CBA",
"}.	c #34859F",
"|.	c #2A6A7F",
"1.	c #265F71",
"2.	c #1A4451",
"3.	c #13303A",
"4.	c #192A30",
"5.	c #272728",
"6.	c #242424",
"7.	c #181819",
"8.	c #1E2021",
"9.	c #242627",
"0.	c #1E2022",
"a.	c #1E1F20",
"b.	c #1F1B1C",
"c.	c #418296",
"d.	c #5DB4CF",
"e.	c #71B9D1",
"f.	c #87C3D7",
"g.	c #A0D0E0",
"h.	c #88C3D7",
"i.	c #67B4CD",
"j.	c #4CA7C4",
"k.	c #3C97B4",
"l.	c #33809A",
"m.	c #2B6D82",
"n.	c #2A697D",
"o.	c #1D4957",
"p.	c #153742",
"q.	c #193139",
"r.	c #222022",
"s.	c #222222",
"t.	c #161618",
"u.	c #252829",
"v.	c #202223",
"w.	c #1D1D20",
"x.	c #1B1717",
"y.	c #408196",
"z.	c #4CAAC8",
"A.	c #4DA6C2",
"B.	c #57ACC8",
"C.	c #5CAFC9",
"D.	c #5BADC8",
"E.	c #51A9C5",
"F.	c #439DBA",
"G.	c #378BA6",
"H.	c #2F778E",
"I.	c #2A6A7E",
"J.	c #2C6F84",
"K.	c #205262",
"L.	c #1A4351",
"M.	c #1B3943",
"N.	c #1D1B1C",
"O.	c #1E1F21",
"P.	c #26272A",
"Q.	c #222225",
"R.	c #1A1D1F",
"S.	c #171414",
"T.	c #2D6477",
"U.	c #378BA7",
"V.	c #3A93B0",
"W.	c #41A1C0",
"X.	c #49A5C2",
"Y.	c #42A2C1",
"Z.	c #3D9AB8",
"`.	c #388CA8",
" +	c #327D95",
".+	c #2C6F85",
"++	c #29697E",
"@+	c #317C94",
"#+	c #266174",
"$+	c #1E4C5B",
"%+	c #1B3A44",
"&+	c #181618",
"*+	c #1D1E1F",
"=+	c #232627",
"-+	c #1A1D1D",
";+	c #141313",
">+	c #1D3943",
",+	c #2C6A7F",
"'+	c #3586A1",
")+	c #398FAB",
"!+	c #388DA9",
"~+	c #3586A0",
"{+	c #307A92",
"]+	c #2B6C81",
"^+	c #2F7991",
"/+	c #3587A2",
"(+	c #2D758C",
"_+	c #235667",
":+	c #1B343C",
"<+	c #151314",
"[+	c #26282A",
"}+	c #292B2D",
"|+	c #121314",
"1+	c #12191B",
"2+	c #26596A",
"3+	c #3386A0",
"4+	c #307990",
"5+	c #327E97",
"6+	c #317C95",
"7+	c #2D7187",
"8+	c #34829B",
"9+	c #3992AE",
"0+	c #2D7288",
"a+	c #2A6C81",
"b+	c #214D5B",
"c+	c #142024",
"d+	c #121214",
"e+	c #1B1C1D",
"f+	c #222527",
"g+	c #2A2D2F",
"h+	c #222325",
"i+	c #17171A",
"j+	c #0D0C0C",
"k+	c #1A373F",
"l+	c #296579",
"m+	c #2C7087",
"n+	c #338099",
"o+	c #34829C",
"p+	c #3686A1",
"q+	c #3789A4",
"r+	c #3688A3",
"s+	c #33829B",
"t+	c #2A6B80",
"u+	c #255A6B",
"v+	c #18333B",
"w+	c #0E1011",
"x+	c #161719",
"y+	c #1A1B1C",
"z+	c #1C1F20",
"A+	c #272A2C",
"B+	c #282C2E",
"C+	c #202023",
"D+	c #121112",
"E+	c #0F1213",
"F+	c #172D35",
"G+	c #23596A",
"H+	c #2F758B",
"I+	c #378AA5",
"J+	c #3B95B2",
"K+	c #3A93AF",
"L+	c #286175",
"M+	c #265E70",
"N+	c #1C3A45",
"O+	c #11181A",
"P+	c #111010",
"Q+	c #212121",
"R+	c #1A1C1C",
"S+	c #191B1C",
"T+	c #232628",
"U+	c #323637",
"V+	c #282A2D",
"W+	c #1E1F22",
"X+	c #121012",
"Y+	c #0B0C0D",
"Z+	c #122125",
"`+	c #234D5B",
" @	c #235666",
".@	c #245B6D",
"+@	c #255E70",
"@@	c #276276",
"#@	c #2A677B",
"$@	c #27596B",
"%@	c #13252B",
"&@	c #0B0D0D",
"*@	c #202121",
"=@	c #1C1D1F",
"-@	c #292B2C",
";@	c #303334",
">@	c #222326",
",@	c #171719",
"'@	c #0C0C0D",
")@	c #0B0D0E",
"!@	c #0A0D0F",
"~@	c #090C0D",
"{@	c #080B0B",
"]@	c #0B0E10",
"^@	c #0B0E0F",
"/@	c #0C0D0E",
"(@	c #1F1F20",
"_@	c #1B1D1F",
":@	c #2B2E2E",
"<@	c #333637",
"[@	c #2F3336",
"}@	c #282B2D",
"|@	c #222324",
"1@	c #19191A",
"2@	c #131213",
"3@	c #0D0C0D",
"4@	c #0B0B0A",
"5@	c #131112",
"6@	c #191919",
"7@	c #1F2022",
"8@	c #212324",
"9@	c #2C2E2F",
"0@	c #333638",
"a@	c #35393C",
"b@	c #34363A",
"c@	c #303336",
"d@	c #2D2F32",
"e@	c #2B2E30",
"f@	c #212223",
"g@	c #1D1F20",
"h@	c #282A2B",
"i@	c #333537",
"j@	c #36383B",
"k@	c #3A3C40",
"l@	c #3D4043",
"m@	c #404346",
"n@	c #404447",
"o@	c #1F1F1F",
"p@	c #232424",
"q@	c #202123",
"r@	c #17181A",
"s@	c #27292B",
"t@	c #303234",
"u@	c #353839",
"v@	c #373B3C",
"w@	c #373B3D",
"x@	c #1D1D1D",
"y@	c #181A1B",
"z@	c #17191B",
"A@	c #222528",
"B@	c #25272A",
"C@	c #181818",
"D@	c #212224",
"E@	c #202124",
"F@	c #111111",
"G@	c #121212",
"H@	c #141415",
"I@	c #151616",
"J@	c #151516",
"K@	c #0A0A0A",
"L@	c #0A0A09",
"M@	c #090909",
"N@	c #030303",
". . . . . . . . . . . . . . . . . . . . . . . . . . . . . ",
"+ + + + + + + + + + + + + + + + + + + + + + + + + + + + + ",
"@ @ @ @ @ @ @ @ @ @ @ @ @ @ @ @ @ @ @ @ @ @ @ @ @ @ @ @ @ ",
"# # # # # # # # # # # # # # # # # # # # # # # # # # # # # ",
"$ $ $ $ $ $ $ $ $ $ $ $ $ $ $ $ $ $ $ $ $ $ $ $ $ $ $ $ $ ",
"% % % % % % % % % % % % % % % % % % % % % % % % % % % % % ",
"& & & & & & & & & & & & & & & & & & & & & & & & & & & & & ",
"* * * * * * * * * * = - ; > , ' ) ! = * * * * * * * * * * ",
"~ ~ ~ ~ ~ ~ ~ ~ ~ { ] ^ / ( _ : < [ } | ~ ~ ~ ~ ~ ~ ~ ~ ~ ",
"1 1 1 1 1 ] 1 1 2 3 4 5 6 7 8 9 0 a b c d 1 1 ] 1 1 1 1 1 ",
"e e f f e g e f h i j k l m n o p q r s t e e g e f f e e ",
"u v w x y z A B C D E F G H I J K L M N O P A z y x w v u ",
"Q R S T U V W X Y Z `  ...+.@.#.$.%.&.*.=.-.;.V U T S R Q ",
">.,.'.).!.~.{.].^./.(._.:.<.@.[.}.|.1.2.3.4.5.~.!.).'.,.>.",
"6.7.8.9.0.a.b.c.d.e.f.g.h.i.j.k.l.m.n.o.p.q.r.a.0.9.8.7.6.",
"s.t.8.u.v.w.x.y.z.A.B.C.D.E.F.G.H.I.J.K.L.M.N.!.v.u.8.t.s.",
"@ t.O.P.Q.R.S.T.U.V.W.X.Y.Z.`. +.+++@+#+$+%+&+R.Q.P.O.t.@ ",
"@ t.*+u.=+-+;+>+,+'+G.)+!+~+{+.+]+^+/+(+_+:+<+-+=+u.*+t.@ ",
"@ 7.~.[+}+a.|+1+2+3+4+5+6+K .+7+8+9+0+a+b+c+d+a.}+[+~.7.@ ",
"@ ,.e+f+g+h+i+j+k+l+m+@+n+o+p+q+r+s+t+u+v+w+x+h+g+f+e+,.@ ",
"@ @ y+z+A+B+C+D+E+F+G+H+n+I+J+K+6+L+M+N+O+P+C+B+A+z+y+@ @ ",
"@ Q+R+S+T+U+V+W+X+Y+Z+`+ @.@+@@@#@$@%@&@X+W+V+U+T+S+R+Q+@ ",
"@ @ *@*+=@-@;@g+>@,@'@)@!@~@{@~@]@^@/@,@>@g+;@-@=@*+*@@ @ ",
"@ @ Q+(@_@v.:@<@[@}@|@1@2@3@4@3@5@6@U V+[@<@:@v._@(@Q+@ @ ",
"@ @ @ *@7@_@8@9@0@a@b@c@d@e@g+e@d@c@b@a@0@9@8@_@7@*@@ @ @ ",
"@ @ @ Q+f@a.!.g@h@i@j@k@l@m@n@m@l@k@j@i@h@g@!.a.f@Q+@ @ @ ",
"@ @ @ o@@ p@q@r@S+8@s@t@u@v@w@v@u@t@s@8@S+r@q@p@@ o@@ @ @ ",
"x@x@x@x@x@x@o@R '.y@z@0.A@B@P.B@A@0.z@y@'.R o@x@x@x@x@x@x@",
"C@C@C@C@C@C@6@6@y+g@8@D@E@C+C+C+E@D@8@g@y+6@6@C@C@C@C@C@C@",
"F@F@F@F@F@F@F@F@G@H@I@J@H@H@H@H@H@J@I@H@G@F@F@F@F@F@F@F@F@",
"K@K@K@K@K@K@K@K@L@M@M@M@M@M@M@M@M@M@M@M@L@K@K@K@K@K@K@K@K@",
"N@N@N@N@N@N@N@N@N@N@N@N@N@N@N@N@N@N@N@N@N@N@N@N@N@N@N@N@N@",
". . . . . . . . . . . . . . . . . . . . . . . . . . . . . "};
