/* XPM */
static char * hide_active_xpm[] = {
"33 33 354 2",
"  	c #000000",
". 	c #0C0C0C",
"+ 	c #202020",
"@ 	c #333333",
"# 	c #414141",
"$ 	c #4C4C4C",
"% 	c #525252",
"& 	c #535353",
"* 	c #545353",
"= 	c #555251",
"- 	c #554F4D",
"; 	c #544D4B",
"> 	c #554E4C",
", 	c #56514F",
"' 	c #565352",
") 	c #565554",
"! 	c #4F4F4F",
"~ 	c #4E4C4C",
"{ 	c #494848",
"] 	c #3C4F55",
"^ 	c #416571",
"/ 	c #46717F",
"( 	c #456B76",
"_ 	c #3F5A63",
": 	c #3A4C52",
"< 	c #3C4447",
"[ 	c #4E4D4D",
"} 	c #504F4F",
"| 	c #484848",
"1 	c #464443",
"2 	c #4B4D4E",
"3 	c #51666C",
"4 	c #417382",
"5 	c #4294AF",
"6 	c #43A5C5",
"7 	c #3894B1",
"8 	c #29728A",
"9 	c #1F5668",
"0 	c #1E3F4A",
"a 	c #3A474B",
"b 	c #474849",
"c 	c #494847",
"d 	c #404040",
"e 	c #3F3F3F",
"f 	c #3E3E3F",
"g 	c #3E3C3B",
"h 	c #576F77",
"i 	c #87CADF",
"j 	c #99CEE0",
"k 	c #7DBFD4",
"l 	c #62B2CC",
"m 	c #489FBC",
"n 	c #368DAA",
"o 	c #327E96",
"p 	c #255F72",
"q 	c #184857",
"r 	c #314045",
"s 	c #413F3F",
"t 	c #363636",
"u 	c #303131",
"v 	c #242526",
"w 	c #292A2A",
"x 	c #323333",
"y 	c #191B1D",
"z 	c #343434",
"A 	c #282625",
"B 	c #50737E",
"C 	c #8EC8DB",
"D 	c #B1D9E6",
"E 	c #B8DCE8",
"F 	c #98CCDD",
"G 	c #6DB7CE",
"H 	c #4CA6C4",
"I 	c #3994B1",
"J 	c #2F768D",
"K 	c #215667",
"L 	c #193F4C",
"M 	c #163843",
"N 	c #203238",
"O 	c #2F3030",
"P 	c #2F2F2F",
"Q 	c #242425",
"R 	c #202122",
"S 	c #232425",
"T 	c #222224",
"U 	c #18191A",
"V 	c #2C2C2C",
"W 	c #223840",
"X 	c #5D8E9E",
"Y 	c #A5D9EA",
"Z 	c #C5E2EB",
"` 	c #DFEFF4",
" .	c #C3E1EB",
"..	c #7EBFD4",
"+.	c #51AAC7",
"@.	c #409BB8",
"#.	c #328099",
"$.	c #266074",
"%.	c #1F4E5E",
"&.	c #173E4C",
"*.	c #163039",
"=.	c #212A2E",
"-.	c #2C2E2D",
";.	c #282828",
">.	c #1C1C1D",
",.	c #1F2122",
"'.	c #222425",
").	c #1D1E20",
"!.	c #1C1D1E",
"~.	c #252323",
"{.	c #316272",
"].	c #63A6BC",
"^.	c #95CDDF",
"/.	c #B4D9E6",
"(.	c #D9ECF2",
"_.	c #B7DBE7",
":.	c #7ABDD3",
"<.	c #409CBA",
"[.	c #34859F",
"}.	c #2A6A7F",
"|.	c #265F71",
"1.	c #1A4451",
"2.	c #13303A",
"3.	c #192A30",
"4.	c #272728",
"5.	c #242424",
"6.	c #181819",
"7.	c #1E2021",
"8.	c #242627",
"9.	c #1E2022",
"0.	c #1E1F20",
"a.	c #1F1B1C",
"b.	c #418296",
"c.	c #5DB4CF",
"d.	c #71B9D1",
"e.	c #87C3D7",
"f.	c #A0D0E0",
"g.	c #88C3D7",
"h.	c #67B4CD",
"i.	c #4CA7C4",
"j.	c #3C97B4",
"k.	c #33809A",
"l.	c #2B6D82",
"m.	c #2A697D",
"n.	c #1D4957",
"o.	c #153742",
"p.	c #193139",
"q.	c #222022",
"r.	c #222222",
"s.	c #161618",
"t.	c #252829",
"u.	c #202223",
"v.	c #1D1D20",
"w.	c #1B1717",
"x.	c #408196",
"y.	c #4CAAC8",
"z.	c #4DA6C2",
"A.	c #57ACC8",
"B.	c #5CAFC9",
"C.	c #5BADC8",
"D.	c #51A9C5",
"E.	c #439DBA",
"F.	c #378BA6",
"G.	c #2F778E",
"H.	c #2A6A7E",
"I.	c #2C6F84",
"J.	c #205262",
"K.	c #1A4351",
"L.	c #1B3943",
"M.	c #1D1B1C",
"N.	c #1E1F21",
"O.	c #26272A",
"P.	c #222225",
"Q.	c #1A1D1F",
"R.	c #171414",
"S.	c #2D6477",
"T.	c #378BA7",
"U.	c #3A93B0",
"V.	c #41A1C0",
"W.	c #49A5C2",
"X.	c #42A2C1",
"Y.	c #3D9AB8",
"Z.	c #388CA8",
"`.	c #327D95",
" +	c #2C6F85",
".+	c #29697E",
"++	c #317C94",
"@+	c #266174",
"#+	c #1E4C5B",
"$+	c #1B3A44",
"%+	c #181618",
"&+	c #1D1E1F",
"*+	c #232627",
"=+	c #1A1D1D",
"-+	c #141313",
";+	c #1D3943",
">+	c #2C6A7F",
",+	c #3586A1",
"'+	c #398FAB",
")+	c #388DA9",
"!+	c #3586A0",
"~+	c #307A92",
"{+	c #2B6C81",
"]+	c #2F7991",
"^+	c #3587A2",
"/+	c #2D758C",
"(+	c #235667",
"_+	c #1B343C",
":+	c #151314",
"<+	c #26282A",
"[+	c #292B2D",
"}+	c #121314",
"|+	c #12191B",
"1+	c #26596A",
"2+	c #3386A0",
"3+	c #307990",
"4+	c #327E97",
"5+	c #317C95",
"6+	c #2D7187",
"7+	c #34829B",
"8+	c #3992AE",
"9+	c #2D7288",
"0+	c #2A6C81",
"a+	c #214D5B",
"b+	c #142024",
"c+	c #121214",
"d+	c #1B1C1D",
"e+	c #222527",
"f+	c #2A2D2F",
"g+	c #222325",
"h+	c #17171A",
"i+	c #0D0C0C",
"j+	c #1A373F",
"k+	c #296579",
"l+	c #2C7087",
"m+	c #338099",
"n+	c #34829C",
"o+	c #3686A1",
"p+	c #3789A4",
"q+	c #3688A3",
"r+	c #33829B",
"s+	c #2A6B80",
"t+	c #255A6B",
"u+	c #18333B",
"v+	c #0E1011",
"w+	c #161719",
"x+	c #1A1B1C",
"y+	c #1C1F20",
"z+	c #272A2C",
"A+	c #282C2E",
"B+	c #202023",
"C+	c #121112",
"D+	c #0F1213",
"E+	c #172D35",
"F+	c #23596A",
"G+	c #2F758B",
"H+	c #378AA5",
"I+	c #3B95B2",
"J+	c #3A93AF",
"K+	c #286175",
"L+	c #265E70",
"M+	c #1C3A45",
"N+	c #11181A",
"O+	c #111010",
"P+	c #212121",
"Q+	c #1A1C1C",
"R+	c #191B1C",
"S+	c #232628",
"T+	c #323637",
"U+	c #282A2D",
"V+	c #1E1F22",
"W+	c #121012",
"X+	c #0B0C0D",
"Y+	c #122125",
"Z+	c #234D5B",
"`+	c #235666",
" @	c #245B6D",
".@	c #255E70",
"+@	c #276276",
"@@	c #2A677B",
"#@	c #27596B",
"$@	c #13252B",
"%@	c #0B0D0D",
"&@	c #202121",
"*@	c #1C1D1F",
"=@	c #292B2C",
"-@	c #303334",
";@	c #222326",
">@	c #171719",
",@	c #0C0C0D",
"'@	c #0B0D0E",
")@	c #0A0D0F",
"!@	c #090C0D",
"~@	c #080B0B",
"{@	c #0B0E10",
"]@	c #0B0E0F",
"^@	c #0C0D0E",
"/@	c #1F1F20",
"(@	c #1B1D1F",
"_@	c #2B2E2E",
":@	c #333637",
"<@	c #2F3336",
"[@	c #282B2D",
"}@	c #222324",
"|@	c #19191A",
"1@	c #131213",
"2@	c #0D0C0D",
"3@	c #0B0B0A",
"4@	c #131112",
"5@	c #191919",
"6@	c #1F2022",
"7@	c #212324",
"8@	c #2C2E2F",
"9@	c #333638",
"0@	c #35393C",
"a@	c #34363A",
"b@	c #303336",
"c@	c #2D2F32",
"d@	c #2B2E30",
"e@	c #212223",
"f@	c #1D1F20",
"g@	c #282A2B",
"h@	c #333537",
"i@	c #36383B",
"j@	c #3A3C40",
"k@	c #3D4043",
"l@	c #404346",
"m@	c #404447",
"n@	c #1F1F1F",
"o@	c #232424",
"p@	c #202123",
"q@	c #17181A",
"r@	c #27292B",
"s@	c #303234",
"t@	c #353839",
"u@	c #373B3C",
"v@	c #373B3D",
"w@	c #1D1D1D",
"x@	c #181A1B",
"y@	c #17191B",
"z@	c #222528",
"A@	c #25272A",
"B@	c #181818",
"C@	c #212224",
"D@	c #202124",
"E@	c #111111",
"F@	c #121212",
"G@	c #141415",
"H@	c #151616",
"I@	c #151516",
"J@	c #0A0A0A",
"K@	c #0A0A09",
"L@	c #090909",
"M@	c #030303",
"                                                                  ",
". . . . . . . . . . . . . . . . . . . . . . . . . . . . . . . . . ",
"+ + + + + + + + + + + + + + + + + + + + + + + + + + + + + + + + + ",
"@ @ @ @ @ @ @ @ @ @ @ @ @ @ @ @ @ @ @ @ @ @ @ @ @ @ @ @ @ @ @ @ @ ",
"# # # # # # # # # # # # # # # # # # # # # # # # # # # # # # # # # ",
"$ $ $ $ $ $ $ $ $ $ $ $ $ $ $ $ $ $ $ $ $ $ $ $ $ $ $ $ $ $ $ $ $ ",
"% % % % % % % % % % % % % % % % % % % % % % % % % % % % % % % % % ",
"& & & & & & & & & & * = - ; > , ' ) * & & & & & & & & & & & & & & ",
"! ! ! ! ! ! ! ! ! ~ { ] ^ / ( _ : < [ } ! ! ! ! ! ! ! ! ! ! ! ! ! ",
"| | | | | { | | 1 2 3 4 5 6 7 8 9 0 a b c | | { | | | | | | | | | ",
"d d e e d f d e g h i j k l m n o p q r s d d f d e e d d d d d d ",
"t u v w x y z A B C D E F G H I J K L M N O z y x w v u t t t t t ",
"P Q R S T U V W X Y Z `  ...+.@.#.$.%.&.*.=.-.U T S R Q P P P P P ",
";.>.,.'.).!.~.{.].^./.(._.:.+.<.[.}.|.1.2.3.4.!.).'.,.>.;.;.;.;.;.",
"5.6.7.8.9.0.a.b.c.d.e.f.g.h.i.j.k.l.m.n.o.p.q.0.9.8.7.6.5.5.5.5.5.",
"r.s.7.t.u.v.w.x.y.z.A.B.C.D.E.F.G.H.I.J.K.L.M.).u.t.7.s.r.r.r.r.r.",
"+ s.N.O.P.Q.R.S.T.U.V.W.X.Y.Z.`. +.+++@+#+$+%+Q.P.O.N.s.+ + + + + ",
"+ s.&+t.*+=+-+;+>+,+F.'+)+!+~+ +{+]+^+/+(+_+:+=+*+t.&+s.+ + + + + ",
"+ 6.!.<+[+0.}+|+1+2+3+4+5+J  +6+7+8+9+0+a+b+c+0.[+<+!.6.+ + + + + ",
"+ >.d+e+f+g+h+i+j+k+l+++m+n+o+p+q+r+s+t+u+v+w+g+f+e+d+>.+ + + + + ",
"+ + x+y+z+A+B+C+D+E+F+G+m+H+I+J+5+K+L+M+N+O+B+A+z+y+x++ + + + + + ",
"+ P+Q+R+S+T+U+V+W+X+Y+Z+`+ @.@+@@@#@$@%@W+V+U+T+S+R+Q+P++ + + + + ",
"+ + &@&+*@=@-@f+;@>@,@'@)@!@~@!@{@]@^@>@;@f+-@=@*@&+&@+ + + + + + ",
"+ + P+/@(@u._@:@<@[@}@|@1@2@3@2@4@5@T U+<@:@_@u.(@/@P++ + + + + + ",
"+ + + &@6@(@7@8@9@0@a@b@c@d@f+d@c@b@a@0@9@8@7@(@6@&@+ + + + + + + ",
"+ + + P+e@0.).f@g@h@i@j@k@l@m@l@k@j@i@h@g@f@).0.e@P++ + + + + + + ",
"+ + + n@+ o@p@q@R+7@r@s@t@u@v@u@t@s@r@7@R+q@p@o@+ n@+ + + + + + + ",
"w@w@w@w@w@w@n@Q ,.x@y@9.z@A@O.A@z@9.y@x@,.Q n@w@w@w@w@w@w@w@w@w@w@",
"B@B@B@B@B@B@5@5@x+f@7@C@D@B+B+B+D@C@7@f@x+5@5@B@B@B@B@B@B@B@B@B@B@",
"E@E@E@E@E@E@E@E@F@G@H@I@G@G@G@G@G@I@H@G@F@E@E@E@E@E@E@E@E@E@E@E@E@",
"J@J@J@J@J@J@J@J@K@L@L@L@L@L@L@L@L@L@L@L@K@J@J@J@J@J@J@J@J@J@J@J@J@",
"M@M@M@M@M@M@M@M@M@M@M@M@M@M@M@M@M@M@M@M@M@M@M@M@M@M@M@M@M@M@M@M@M@",
"                                                                  "};
