/* XPM */
static char * left_active_xpm[] = {
"10 1 10 1",
" 	c None",
".	c #171717",
"+	c #101010",
"@	c #161616",
"#	c #000000",
"$	c #010000",
"%	c #060606",
"&	c #0E0E0E",
"*	c #121212",
"=	c #181818",
".+@#$%&*@="};
