/* XPM */
static char * maximize_inactive_xpm[] = {
"33 33 151 2",
"  	c #000000",
". 	c #0C0C0C",
"+ 	c #202020",
"@ 	c #333333",
"# 	c #414141",
"$ 	c #4C4C4C",
"% 	c #525252",
"& 	c #535353",
"* 	c #505050",
"= 	c #4E4E4E",
"- 	c #4F4F4F",
"; 	c #545454",
"> 	c #555555",
", 	c #484848",
"' 	c #4B4B4B",
") 	c #5E5E5E",
"! 	c #696969",
"~ 	c #646464",
"{ 	c #494949",
"] 	c #434343",
"^ 	c #4D4D4D",
"/ 	c #444444",
"( 	c #626262",
"_ 	c #858585",
": 	c #929292",
"< 	c #838383",
"[ 	c #393939",
"} 	c #454545",
"| 	c #404040",
"1 	c #3F3F3F",
"2 	c #3E3E3E",
"3 	c #3C3C3C",
"4 	c #6A6A6A",
"5 	c #BDBDBD",
"6 	c #C4C4C4",
"7 	c #B2B2B2",
"8 	c #A3A3A3",
"9 	c #8F8F8F",
"0 	c #7D7D7D",
"a 	c #707070",
"b 	c #3D3D3D",
"c 	c #363636",
"d 	c #313131",
"e 	c #252525",
"f 	c #2A2A2A",
"g 	c #1B1B1B",
"h 	c #343434",
"i 	c #262626",
"j 	c #6C6C6C",
"k 	c #D1D1D1",
"l 	c #D5D5D5",
"m 	c #C2C2C2",
"n 	c #A9A9A9",
"o 	c #959595",
"p 	c #383838",
"q 	c #323232",
"r 	c #2F2F2F",
"s 	c #303030",
"t 	c #242424",
"u 	c #212121",
"v 	c #222222",
"w 	c #191919",
"x 	c #2C2C2C",
"y 	c #CFCFCF",
"z 	c #DCDCDC",
"A 	c #ECECEC",
"B 	c #DBDBDB",
"C 	c #B3B3B3",
"D 	c #999999",
"E 	c #8A8A8A",
"F 	c #717171",
"G 	c #373737",
"H 	c #2B2B2B",
"I 	c #282828",
"J 	c #2E2E2E",
"K 	c #1C1C1C",
"L 	c #1E1E1E",
"M 	c #1D1D1D",
"N 	c #232323",
"O 	c #595959",
"P 	c #D2D2D2",
"Q 	c #E8E8E8",
"R 	c #D4D4D4",
"S 	c #B0B0B0",
"T 	c #8B8B8B",
"U 	c #767676",
"V 	c #272727",
"W 	c #181818",
"X 	c #1F1F1F",
"Y 	c #ABABAB",
"Z 	c #B8B8B8",
"` 	c #C7C7C7",
" .	c #A5A5A5",
"..	c #969696",
"+.	c #868686",
"@.	c #727272",
"#.	c #606060",
"$.	c #5D5D5D",
"%.	c #161616",
"&.	c #757575",
"*.	c #989898",
"=.	c #9C9C9C",
"-.	c #9F9F9F",
";.	c #9E9E9E",
">.	c #8C8C8C",
",.	c #7B7B7B",
"'.	c #3B3B3B",
").	c #151515",
"!.	c #5A5A5A",
"~.	c #828282",
"{.	c #949494",
"].	c #909090",
"^.	c #888888",
"/.	c #7C7C7C",
"(.	c #6F6F6F",
"_.	c #6E6E6E",
":.	c #565656",
"<.	c #171717",
"[.	c #131313",
"}.	c #777777",
"|.	c #7F7F7F",
"1.	c #6B6B6B",
"2.	c #787878",
"3.	c #676767",
"4.	c #737373",
"5.	c #818181",
"6.	c #656565",
"7.	c #5F5F5F",
"8.	c #121212",
"9.	c #2D2D2D",
"0.	c #636363",
"a.	c #7A7A7A",
"b.	c #797979",
"c.	c #101010",
"d.	c #111111",
"e.	c #292929",
"f.	c #686868",
"g.	c #848484",
"h.	c #353535",
"i.	c #515151",
"j.	c #575757",
"k.	c #5B5B5B",
"l.	c #0D0D0D",
"m.	c #0B0B0B",
"n.	c #0A0A0A",
"o.	c #0E0E0E",
"p.	c #3A3A3A",
"q.	c #1A1A1A",
"r.	c #141414",
"s.	c #090909",
"t.	c #030303",
"                                                                  ",
". . . . . . . . . . . . . . . . . . . . . . . . . . . . . . . . . ",
"+ + + + + + + + + + + + + + + + + + + + + + + + + + + + + + + + + ",
"@ @ @ @ @ @ @ @ @ @ @ @ @ @ @ @ @ @ @ @ @ @ @ @ @ @ @ @ @ @ @ @ @ ",
"# # # # # # # # # # # # # # # # # # # # # # # # # # # # # # # # # ",
"$ $ $ $ $ $ $ $ $ $ $ $ $ $ $ $ $ $ $ $ $ $ $ $ $ $ $ $ $ $ $ $ $ ",
"% % % % % % % % % % % % % % % % % % % % % % % % % % % % % % % % % ",
"& & & & & & & & & & & & * = - % ; > & & & & & & & & & & & & & & & ",
"- - - - - - - - - $ , ' ) ! ~ > { ] ^ - - - - - - - - - - - - - - ",
", , , , , , , , / ^ ( ! _ : < ~ $ [ } , , , , , , , , , , , , , , ",
"| | 1 1 | 2 | 1 3 4 5 6 7 8 9 0 a ; 1 b 1 | | 2 | 1 1 | | | | | | ",
"c d e f @ g h i j 5 k l m n o < ! $ p q r s h g @ f e d c c c c c ",
"r t u t v w x h _ y z A B C D E F > } G H I J w v t u t r r r r r ",
"I K u t L M N O D m P Q R S D T U ) ; 3 H V V M L t u K I I I I I ",
"t W + i + X K U 8 Y Z ` Z  ...+.@.#.$.# d x u X + i + W t t t t t ",
"v %.+ V v M W &.*.o =.-.;.*.>.,.! ) ( { '.@ g L v V + %.v v v v v ",
"+ %.X V v M ).!.,.~.9 {.].^./.(.( $._.:.] h <.M v V X %.+ + + + + ",
"+ %.L V e K [.h ) }.,.|.0 }.j ( #.1.2.3.$ r [.K e V L %.+ + + + + ",
"+ W M I H X [.W - U 1.a _.! ( ~ 4.5.6.7.} L 8.X H I M W + + + + + ",
"+ K K e 9.N <.. d !.0._.F 4.}.a.b.4.7.* J c.<.N 9.e K K + + + + + ",
"+ + g L f H + d.d.e.- f.F a.g.~._.:.& h <.c.+ H f L g + + + + + + ",
"+ u K g i h.f X d.. L } $ i.& j.k.* v l.d.X f h.i g K u + + + + + ",
"+ + u L M H q 9.N <.. l.l.m.n.m.o.l.l.<.N 9.q H M L u + + + + + + ",
"+ + u X M v 9.h.q H N w 8.. m.. d.w v f q h.9.v M X u + + + + + + ",
"+ + + u + M N J c p c @ r J 9.J r @ c p c J N M + u + + + + + + + ",
"+ + + u v X L X f h.p 3 | ] ] ] | 3 p h.f X L X v u + + + + + + + ",
"+ + + X + t u W g N e.q G p.p.p.G q e.N g W u t + X + + + + + + + ",
"M M M M M M X t u q.w + e V V V e + w q.u t X M M M M M M M M M M ",
"W W W W W W w w g X N v u + + + u v N X g w w W W W W W W W W W W ",
"d.d.d.d.d.d.d.d.8.r.%.).r.r.r.r.r.).%.r.8.d.d.d.d.d.d.d.d.d.d.d.d.",
"n.n.n.n.n.n.n.n.n.s.s.s.s.s.s.s.s.s.s.s.n.n.n.n.n.n.n.n.n.n.n.n.n.",
"t.t.t.t.t.t.t.t.t.t.t.t.t.t.t.t.t.t.t.t.t.t.t.t.t.t.t.t.t.t.t.t.t.",
"                                                                  "};
