/* XPM */
static char * right_active_xpm[] = {
"10 1 5 1",
" 	c None",
".	c #111111",
"+	c #000000",
"@	c #161616",
"#	c #181818",
".....++@.#"};
