/* XPM */
static char * title_4_active_xpm[] = {
"4 33 22 1",
" 	c None",
".	c #000000",
"+	c #0C0C0C",
"@	c #202020",
"#	c #333333",
"$	c #414141",
"%	c #4C4C4C",
"&	c #525252",
"*	c #535353",
"=	c #4F4F4F",
"-	c #484848",
";	c #404040",
">	c #363636",
",	c #2E2E2E",
"'	c #282828",
")	c #242424",
"!	c #222222",
"~	c #1D1D1D",
"{	c #181818",
"]	c #111111",
"^	c #0A0A0A",
"/	c #030303",
"....",
"++++",
"@@@@",
"####",
"$$$$",
"%%%%",
"&&&&",
"****",
"====",
"----",
";;;;",
">>>>",
",,,,",
"''''",
"))))",
"!!!!",
"@@@@",
"@@@@",
"@@@@",
"@@@@",
"@@@@",
"@@@@",
"@@@@",
"@@@@",
"@@@@",
"@@@@",
"@@@@",
"~~~~",
"{{{{",
"]]]]",
"^^^^",
"////",
"...."};
