/* XPM */
static char * top_left_inactive_xpm[] = {
"18 33 154 2",
"  	c None",
". 	c #151516",
"+ 	c #060607",
"@ 	c #030303",
"# 	c #020202",
"$ 	c #010101",
"% 	c #191A1B",
"& 	c #0A0B0B",
"* 	c #050505",
"= 	c #030304",
"- 	c #080808",
"; 	c #0C0C0C",
"> 	c #1A1A1B",
", 	c #070707",
"' 	c #070807",
") 	c #050607",
"! 	c #121213",
"~ 	c #1D1D1D",
"{ 	c #1E1E1E",
"] 	c #232426",
"^ 	c #090909",
"/ 	c #060606",
"( 	c #141413",
"_ 	c #191919",
": 	c #090B0E",
"< 	c #1F1F1F",
"[ 	c #2E2E2E",
"} 	c #313131",
"| 	c #303030",
"1 	c #151615",
"2 	c #181818",
"3 	c #252526",
"4 	c #0E0F11",
"5 	c #2A292A",
"6 	c #3D3D3D",
"7 	c #414141",
"8 	c #3F3F3F",
"9 	c #2D2D2D",
"0 	c #383838",
"a 	c #1B1B1C",
"b 	c #131516",
"c 	c #313132",
"d 	c #494949",
"e 	c #4D4D4D",
"f 	c #4B4B4B",
"g 	c #111111",
"h 	c #3B3B3B",
"i 	c #0F0F10",
"j 	c #17191A",
"k 	c #373738",
"l 	c #4E4E4E",
"m 	c #535353",
"n 	c #515151",
"o 	c #000000",
"p 	c #222222",
"q 	c #4A4B4B",
"r 	c #383737",
"s 	c #191C1C",
"t 	c #393939",
"u 	c #4F4F4F",
"v 	c #545454",
"w 	c #525252",
"x 	c #2C2C2C",
"y 	c #4C4C4C",
"z 	c #323232",
"A 	c #181B1B",
"B 	c #363737",
"C 	c #505050",
"D 	c #4A4A4A",
"E 	c #2F2F2F",
"F 	c #070808",
"G 	c #131618",
"H 	c #313032",
"I 	c #454545",
"J 	c #474747",
"K 	c #343434",
"L 	c #0A0B0C",
"M 	c #0E1113",
"N 	c #2A292B",
"O 	c #3E3D3E",
"P 	c #424241",
"Q 	c #404040",
"R 	c #0D0E0E",
"S 	c #080B0D",
"T 	c #212222",
"U 	c #363636",
"V 	c #303130",
"W 	c #101111",
"X 	c #050507",
"Y 	c #171817",
"Z 	c #252525",
"` 	c #2A2A2A",
" .	c #2B2B2B",
"..	c #0A0A09",
"+.	c #555555",
"@.	c #2F3030",
"#.	c #101010",
"$.	c #030102",
"%.	c #10100F",
"&.	c #1C1B1B",
"*.	c #212120",
"=.	c #232323",
"-.	c #292929",
";.	c #282828",
">.	c #171818",
",.	c #555454",
"'.	c #535352",
").	c #2D2D2E",
"!.	c #0E0E0E",
"~.	c #010000",
"{.	c #0C0B0A",
"].	c #161615",
"^.	c #1A1B1A",
"/.	c #202020",
"(.	c #242424",
"_.	c #242527",
":.	c #4F4F4E",
"<.	c #0B0B0B",
"[.	c #0A0807",
"}.	c #101110",
"|.	c #1C1C1C",
"1.	c #212121",
"2.	c #242526",
"3.	c #4E4E4F",
"4.	c #262626",
"5.	c #070604",
"6.	c #0E0E0D",
"7.	c #131313",
"8.	c #161616",
"9.	c #292A2B",
"0.	c #49494A",
"a.	c #444444",
"b.	c #060503",
"c.	c #141414",
"d.	c #171717",
"e.	c #1B1B1B",
"f.	c #252626",
"g.	c #424242",
"h.	c #060403",
"i.	c #3A3A3A",
"j.	c #111212",
"k.	c #151515",
"l.	c #333333",
"m.	c #050403",
"n.	c #121212",
"o.	c #060404",
"p.	c #1A1A1A",
"q.	c #0F0F0F",
"r.	c #060504",
"s.	c #060505",
"t.	c #060605",
"u.	c #050404",
"v.	c #0A0A0A",
"w.	c #030202",
"        . + @ # $ $ $ $ $ $ $ $ $ $ ",
"    % & * = - ; ; ; ; ; ; ; ; ; ; ; ",
"  > , @ ' ) ! ~ { ~ ~ ~ ~ ~ ~ ~ ~ ~ ",
"] ^ / ( _ : < [ } | | | | | | | | | ",
"1 # 2 [ 3 4 5 6 7 8 8 8 8 8 8 8 8 8 ",
", / 9 0 a b c d e f f f f f f f f f ",
"$ g 8 h i j k l m n n n n n n n n n ",
"o p q r - s t u v w w w w w w w w w ",
"o x y z / A B y C l l l l l l l l l ",
"o | D E F G H I d J J J J J J J J J ",
"$ K D E L M N O P Q Q Q Q Q Q Q Q Q ",
"# 7 u | R S T K 0 U U U U U U U U U ",
"@ e v V W X Y Z `  .9 E E [ [ [ [ [ ",
"..m +.@.#.$.%.&.*.=.Z -.-.-.;.;.;.;.",
">.,.'.).!.~.{.].^.~ /.=.(.(.(.(.(.(.",
"_.m :.` <.o [.}.1 _ |.< /.1.p 1.1.1.",
"2.3.D 4., o 5.6.7.8._ |.< /././././.",
"9.0.a.1.@ o b.; W c.d.e.< /././././.",
"f.g.6 |.o o h.; g c.2 e.< /././././.",
"1.i.U 2 o o h.; j.k.2 e.< /././././.",
"< l.E k.o o m.; n.k.2 e.< /././././.",
"p 9 ;.n.o o m.; n.k.2 e.< /././././.",
"1.4.p #.o o m.; n.k.2 e.< /././././.",
"< < { #.o o o.; g k.2 e.< /././././.",
"~ p.e.q.o o r.; g c.d.e.< /././././.",
"e.d._ q.o o s.; g c.d.p.{ /././././.",
"p.c.d.q.o o s.; g c.d.e.{ < < < < < ",
"2 n.k.!.o o s.; g c.d.e.~ ~ ~ ~ ~ ~ ",
"d.g k.!.o ~.s.; g c.d._ 2 2 2 2 2 2 ",
"2 7.8.!.o ~.t.; q.g n.n.g g g g g g ",
"p.k.d.q.o o u.^ v.v.v.v.v.v.v.v.v.v.",
"p.c.d.q.o o w.@ @ @ @ @ @ @ @ @ @ @ ",
"2 n.k.!.o o ~.o o o o o o o o o o o "};
