/* XPM */
static char * top_right_inactive_xpm[] = {
"18 33 154 2",
"  	c None",
". 	c #010101",
"+ 	c #020202",
"@ 	c #030303",
"# 	c #060607",
"$ 	c #151516",
"% 	c #0C0C0C",
"& 	c #080808",
"* 	c #030304",
"= 	c #050505",
"- 	c #0A0B0B",
"; 	c #191A1B",
"> 	c #1D1D1D",
", 	c #1E1E1E",
"' 	c #121213",
") 	c #050607",
"! 	c #070807",
"~ 	c #070707",
"{ 	c #1A1A1B",
"] 	c #303030",
"^ 	c #313131",
"/ 	c #2E2E2E",
"( 	c #1F1F1F",
"_ 	c #090B0E",
": 	c #191919",
"< 	c #141413",
"[ 	c #060606",
"} 	c #090909",
"| 	c #232426",
"1 	c #3F3F3F",
"2 	c #414141",
"3 	c #3D3D3D",
"4 	c #2A292A",
"5 	c #0E0F11",
"6 	c #252526",
"7 	c #181818",
"8 	c #151615",
"9 	c #4B4B4B",
"0 	c #4D4D4D",
"a 	c #494949",
"b 	c #313132",
"c 	c #131516",
"d 	c #1B1B1C",
"e 	c #383838",
"f 	c #2D2D2D",
"g 	c #515151",
"h 	c #535353",
"i 	c #4E4E4E",
"j 	c #373738",
"k 	c #17191A",
"l 	c #0F0F10",
"m 	c #3B3B3B",
"n 	c #111111",
"o 	c #525252",
"p 	c #545454",
"q 	c #4F4F4F",
"r 	c #393939",
"s 	c #191C1C",
"t 	c #383737",
"u 	c #4A4B4B",
"v 	c #222222",
"w 	c #000000",
"x 	c #505050",
"y 	c #4C4C4C",
"z 	c #363737",
"A 	c #181B1B",
"B 	c #323232",
"C 	c #2C2C2C",
"D 	c #474747",
"E 	c #454545",
"F 	c #313032",
"G 	c #131618",
"H 	c #070808",
"I 	c #2F2F2F",
"J 	c #4A4A4A",
"K 	c #404040",
"L 	c #424241",
"M 	c #3E3D3E",
"N 	c #2A292B",
"O 	c #0E1113",
"P 	c #0A0B0C",
"Q 	c #343434",
"R 	c #363636",
"S 	c #212222",
"T 	c #080B0D",
"U 	c #0D0E0E",
"V 	c #2B2B2B",
"W 	c #2A2A2A",
"X 	c #252525",
"Y 	c #171817",
"Z 	c #050507",
"` 	c #101111",
" .	c #303130",
"..	c #282828",
"+.	c #292929",
"@.	c #232323",
"#.	c #212120",
"$.	c #1C1B1B",
"%.	c #10100F",
"&.	c #030102",
"*.	c #101010",
"=.	c #2F3030",
"-.	c #555555",
";.	c #0A0A09",
">.	c #242424",
",.	c #202020",
"'.	c #1A1B1A",
").	c #161615",
"!.	c #0C0B0A",
"~.	c #010000",
"{.	c #0E0E0E",
"].	c #2D2D2E",
"^.	c #535352",
"/.	c #555454",
"(.	c #171818",
"_.	c #212121",
":.	c #1C1C1C",
"<.	c #101110",
"[.	c #0A0807",
"}.	c #0B0B0B",
"|.	c #4F4F4E",
"1.	c #242527",
"2.	c #161616",
"3.	c #131313",
"4.	c #0E0E0D",
"5.	c #070604",
"6.	c #262626",
"7.	c #4E4E4F",
"8.	c #242526",
"9.	c #1B1B1B",
"0.	c #171717",
"a.	c #141414",
"b.	c #060503",
"c.	c #444444",
"d.	c #49494A",
"e.	c #292A2B",
"f.	c #060403",
"g.	c #424242",
"h.	c #252626",
"i.	c #151515",
"j.	c #111212",
"k.	c #3A3A3A",
"l.	c #121212",
"m.	c #050403",
"n.	c #333333",
"o.	c #060404",
"p.	c #060504",
"q.	c #0F0F0F",
"r.	c #1A1A1A",
"s.	c #060505",
"t.	c #060605",
"u.	c #0A0A0A",
"v.	c #050404",
"w.	c #030202",
". . . . . . . . . . + @ # $         ",
"% % % % % % % % % % % & * = - ;     ",
"> > > > > > > > > , > ' ) ! @ ~ {   ",
"] ] ] ] ] ] ] ] ] ^ / ( _ : < [ } | ",
"1 1 1 1 1 1 1 1 1 2 3 4 5 6 / 7 + 8 ",
"9 9 9 9 9 9 9 9 9 0 a b c d e f [ ~ ",
"g g g g g g g g g h i j k l m 1 n . ",
"o o o o o o o o o p q r s & t u v w ",
"i i i i i i i i i x y z A [ B y C w ",
"D D D D D D D D D a E F G H I J ] w ",
"K K K K K K K K K L M N O P I J Q . ",
"R R R R R R R R R e Q S T U ] q 2 + ",
"/ / / / / I I f V W X Y Z `  .p 0 @ ",
"........+.+.+.X @.#.$.%.&.*.=.-.h ;.",
">.>.>.>.>.>.@.,.> '.).!.~.{.].^./.(.",
"_._._.v _.,.( :.: 8 <.[.w }.W |.h 1.",
",.,.,.,.,.( :.: 2.3.4.5.w ~ 6.J 7.8.",
",.,.,.,.,.( 9.0.a.` % b.w @ _.c.d.e.",
",.,.,.,.,.( 9.7 a.n % f.w w :.3 g.h.",
",.,.,.,.,.( 9.7 i.j.% f.w w 7 R k._.",
",.,.,.,.,.( 9.7 i.l.% m.w w i.I n.( ",
",.,.,.,.,.( 9.7 i.l.% m.w w l...f v ",
",.,.,.,.,.( 9.7 i.l.% m.w w *.v 6._.",
",.,.,.,.,.( 9.7 i.n % o.w w *., ( ( ",
",.,.,.,.,.( 9.0.a.n % p.w w q.9.r.> ",
",.,.,.,.,., r.0.a.n % s.w w q.: 0.9.",
"( ( ( ( ( , 9.0.a.n % s.w w q.0.a.r.",
"> > > > > > 9.0.a.n % s.w w {.i.l.7 ",
"7 7 7 7 7 7 : 0.a.n % s.~.w {.i.n 0.",
"n n n n n n l.l.n q.% t.~.w {.2.3.7 ",
"u.u.u.u.u.u.u.u.u.u.} v.w w q.0.i.r.",
"@ @ @ @ @ @ @ @ @ @ @ w.w w q.0.a.r.",
"w w w w w w w w w w w ~.w w {.i.l.7 "};
